<svg width="46" height="45" viewBox="0 0 46 45" fill="none" xmlns="http://www.w3.org/2000/svg">
<foreignObject x="0" y="0" width="0" height="0"><div xmlns="http://www.w3.org/1999/xhtml" style="backdrop-filter:blur(25px);clip-path:url(#bgblur_0_2136_149_clip_path);height:100%;width:100%"></div></foreignObject><g data-figma-bg-blur-radius="50">
<rect width="46" height="45" rx="10" fill="#7B7B7B" fill-opacity="0.1"/>
<rect x="0.5" y="0.5" width="45" height="44" rx="9.5" stroke="#989898" stroke-opacity="0.3"/>
<path d="M24.6006 32.0761L30.0608 28.9236C30.6437 28.5871 30.9346 28.4188 31.1465 28.1834C31.3341 27.9751 31.4759 27.7297 31.5625 27.4632C31.6602 27.1626 31.6602 26.8267 31.6602 26.1568V19.8427C31.6602 19.1728 31.6602 18.8369 31.5625 18.5364C31.4759 18.2698 31.3341 18.0243 31.1465 17.816C30.9355 17.5816 30.6453 17.4141 30.0674 17.0804L24.5996 13.9236C24.0167 13.5871 23.7259 13.4191 23.416 13.3533C23.1419 13.295 22.8584 13.295 22.5843 13.3533C22.2744 13.4191 21.9826 13.5871 21.3997 13.9236L15.9384 17.0767C15.3562 17.4128 15.0654 17.5807 14.8535 17.816C14.666 18.0243 14.5243 18.2698 14.4377 18.5364C14.3398 18.8376 14.3398 19.1744 14.3398 19.8474V26.1524C14.3398 26.8254 14.3398 27.1619 14.4377 27.4632C14.5243 27.7297 14.666 27.9751 14.8535 28.1834C15.0655 28.4188 15.3566 28.5871 15.9395 28.9236L21.3997 32.0761C21.9826 32.4126 22.2744 32.5806 22.5843 32.6465C22.8584 32.7047 23.1419 32.7047 23.416 32.6465C23.7259 32.5806 24.0177 32.4126 24.6006 32.0761Z" stroke="white" stroke-width="2" stroke-linecap="round" stroke-linejoin="round"/>
<path d="M20 22.9998C20 24.6566 21.3431 25.9998 23 25.9998C24.6569 25.9998 26 24.6566 26 22.9998C26 21.3429 24.6569 19.9998 23 19.9998C21.3431 19.9998 20 21.3429 20 22.9998Z" stroke="white" stroke-width="2" stroke-linecap="round" stroke-linejoin="round"/>
</g>
<defs>
<clipPath id="bgblur_0_2136_149_clip_path" transform="translate(0 0)"><rect width="46" height="45" rx="10"/>
</clipPath></defs>
</svg>
